<svg xmlns="http://www.w3.org/2000/svg"  viewBox="0 0 48 48" width="48px" height="48px" baseProfile="basic"><linearGradient id="ZgXKSifgSuNHmoj58KrSJa" x1="24" x2="24" y1="-6.726" y2="61.281" gradientUnits="userSpaceOnUse"><stop offset="0" stop-color="#262626" stop-opacity="0"/><stop offset="1" stop-color="#262626" stop-opacity=".8"/></linearGradient><path fill="url(#ZgXKSifgSuNHmoj58KrSJa)" d="M24,44.404L4,31.07V16.93L24,3.596L44,16.93V31.07L24,44.404z M8,28.93l16,10.667L40,28.93	V19.07L24,8.404L8,19.07V28.93z"/><linearGradient id="ZgXKSifgSuNHmoj58KrSJb" x1="24" x2="24" y1="57.607" y2="-4.643" gradientUnits="userSpaceOnUse"><stop offset="0" stop-color="#262626" stop-opacity="0"/><stop offset="1" stop-color="#262626" stop-opacity=".8"/></linearGradient><path fill="url(#ZgXKSifgSuNHmoj58KrSJb)" d="M24,8.404l-2,1.333v7.192l-7,4.667L9.606,18L8,19.07v2.667L11.394,24L8,26.263v2.667L9.606,30	L15,26.404l7,4.667v7.192l2,1.333l2-1.333V31.07l7-4.667L38.394,30L40,28.93v-2.667L36.606,24L40,21.737V19.07L38.394,18L33,21.596	l-7-4.667V9.737L24,8.404z M29.394,24L24,27.596L18.606,24L24,20.404L29.394,24z"/></svg>